<svg width="165" height="75" viewBox="0 0 165 75" fill="none" xmlns="http://www.w3.org/2000/svg">
<rect width="165" height="75" rx="8" fill="white"/>
<path fill-rule="evenodd" clip-rule="evenodd" d="M34.2136 48.0506C34.2136 46.593 36.6541 46.1071 38.1183 44.6495C38.8504 44.1636 39.0945 43.9206 39.0945 42.9489L32.0173 45.1353C31.2851 45.6212 30.553 45.8642 29.8209 46.35C27.1364 47.5647 25.1841 50.9658 25.1841 54.124C25.6722 53.8811 26.1603 53.6382 26.6483 53.3952C32.7494 50.9658 34.9458 54.124 41.5349 48.7794C42.023 48.5365 42.267 48.2935 42.5111 47.8077L45.6836 44.4065C46.4158 43.4348 47.1479 42.706 47.3919 41.7342C45.6836 42.2201 39.5826 47.0788 36.166 47.8077C34.9458 48.2935 34.9458 48.0506 34.2136 48.0506Z" fill="#336699"/>
<path fill-rule="evenodd" clip-rule="evenodd" d="M44.2193 39.7907C44.9515 39.0619 46.4157 36.3896 46.9038 35.4178C48.8561 30.3161 44.9515 28.3726 40.3147 29.1014C39.3385 29.3444 38.6064 29.5873 37.6302 29.8302C36.654 30.3161 35.6779 31.0449 35.4338 31.0449C35.4338 28.6156 33.4815 25.4574 30.797 24.2427C25.4281 21.5704 20.3032 27.1579 23.9638 36.1466C24.696 37.6043 26.8923 42.706 28.1126 43.4348C27.3804 40.7624 24.696 34.2031 25.9162 30.802C27.3804 27.1579 31.0411 28.6156 32.9934 31.2879C33.4815 31.7737 34.2136 32.9884 34.4577 33.4743L35.9219 32.5026C40.3147 29.5873 46.1717 30.802 44.7074 37.3613C44.7074 38.3331 44.2193 39.0619 44.2193 39.7907Z" fill="#336699"/>
<path fill-rule="evenodd" clip-rule="evenodd" d="M31.5291 23.9997C31.285 22.7851 27.6244 20.1127 24.4518 21.0845C22.0114 21.5704 20.3031 23.9997 20.0591 26.915C20.0591 32.5026 22.0114 36.3896 24.4518 40.7625C24.9399 41.2483 25.184 41.9771 25.6721 42.2201C25.428 41.9771 25.184 41.2483 25.184 40.7625C23.4757 36.3896 20.5472 29.1014 22.7435 24.9715C23.9638 23.028 26.1601 22.0562 28.6006 22.5421C29.3327 22.5421 29.8208 22.7851 30.3089 23.028C30.7969 23.5139 31.041 23.7568 31.5291 23.9997Z" fill="#4CC246"/>
<path fill-rule="evenodd" clip-rule="evenodd" d="M35.9219 30.3161C36.41 30.0732 36.898 29.8302 37.3861 29.5873C39.8266 28.3726 43.2431 27.6438 45.9276 28.8585C46.6597 29.3444 47.6359 30.3161 47.6359 31.5308C48.124 31.2879 47.8799 31.5308 47.8799 30.802C47.8799 28.6156 46.9038 27.8867 44.9514 27.4009C41.7789 26.4291 36.41 28.1297 35.9219 30.3161Z" fill="#4CC246"/>
<path fill-rule="evenodd" clip-rule="evenodd" d="M35.9218 30.3161H35.6777L35.9218 30.5591V30.3161Z" fill="#4CC246"/>
<path fill-rule="evenodd" clip-rule="evenodd" d="M31.5291 23.9997V24.2427L31.7731 23.9997H31.5291Z" fill="#4CC246"/>
<path d="M78.1975 36.5L78.1795 23.9H76.2535L71.3395 32.252L66.3355 23.9H64.4095V36.5H66.6415V28.256L70.7815 35.06H71.8255L75.9655 28.148L75.9835 36.5H78.1975ZM90.4209 31.748C90.4209 28.742 88.3689 26.78 85.5609 26.78C82.6989 26.78 80.5929 28.832 80.5929 31.694C80.5929 34.556 82.6809 36.626 85.9029 36.626C87.5589 36.626 88.9089 36.086 89.7729 35.06L88.5669 33.674C87.8829 34.376 87.0369 34.718 85.9569 34.718C84.2829 34.718 83.1129 33.818 82.8429 32.414H90.3849C90.4029 32.198 90.4209 31.928 90.4209 31.748ZM85.5609 28.58C87.0369 28.58 88.0989 29.534 88.2789 30.92H82.8249C83.0409 29.516 84.1029 28.58 85.5609 28.58ZM99.7462 23.144V28.076C98.9902 27.194 97.8922 26.78 96.6502 26.78C93.8602 26.78 91.7902 28.706 91.7902 31.694C91.7902 34.682 93.8602 36.626 96.6502 36.626C97.9642 36.626 99.0802 36.176 99.8362 35.258V36.5H101.996V23.144H99.7462ZM96.9202 34.7C95.3002 34.7 94.0582 33.53 94.0582 31.694C94.0582 29.858 95.3002 28.688 96.9202 28.688C98.5402 28.688 99.7822 29.858 99.7822 31.694C99.7822 33.53 98.5402 34.7 96.9202 34.7ZM112.194 36.5H114.93L110.538 30.92L114.552 26.888H111.852L107.19 31.208V23.144H104.94V36.5H107.19V33.962L108.864 32.378L112.194 36.5ZM119.879 26.78C118.331 26.78 116.837 27.176 115.811 27.968L116.693 29.606C117.413 29.012 118.529 28.652 119.609 28.652C121.211 28.652 122.003 29.426 122.003 30.74V30.884H119.519C116.603 30.884 115.523 32.144 115.523 33.746C115.523 35.42 116.909 36.626 119.105 36.626C120.545 36.626 121.589 36.158 122.129 35.33V36.5H124.253V30.866C124.253 28.094 122.651 26.78 119.879 26.78ZM119.573 34.988C118.421 34.988 117.737 34.466 117.737 33.656C117.737 32.954 118.151 32.378 119.681 32.378H122.003V33.494C121.625 34.484 120.671 34.988 119.573 34.988ZM127.141 36.5H129.391V23.144H127.141V36.5ZM137.672 26.78C136.358 26.78 135.242 27.23 134.486 28.148V26.888H132.344V39.992H134.594V35.33C135.368 36.212 136.448 36.626 137.672 36.626C140.48 36.626 142.55 34.682 142.55 31.694C142.55 28.724 140.48 26.78 137.672 26.78ZM137.42 34.7C135.8 34.7 134.558 33.53 134.558 31.694C134.558 29.858 135.8 28.688 137.42 28.688C139.04 28.688 140.264 29.858 140.264 31.694C140.264 33.53 139.04 34.7 137.42 34.7Z" fill="#121212"/>
<path d="M62.4654 44.5V47.51H58.4454V44.5H57.4454V51.5H58.4454V48.38H62.4654V51.5H63.4654V44.5H62.4654ZM70.2107 48.88C70.2107 47.25 69.1207 46.15 67.5907 46.15C66.0607 46.15 64.9307 47.28 64.9307 48.85C64.9307 50.43 66.0707 51.56 67.7807 51.56C68.6607 51.56 69.3907 51.26 69.8707 50.7L69.3407 50.08C68.9507 50.51 68.4307 50.72 67.8107 50.72C66.7607 50.72 66.0107 50.1 65.8907 49.17H70.1907C70.2007 49.08 70.2107 48.96 70.2107 48.88ZM67.5907 46.96C68.5207 46.96 69.1907 47.59 69.2907 48.48H65.8907C65.9907 47.58 66.6707 46.96 67.5907 46.96ZM73.3272 46.15C72.4772 46.15 71.6872 46.39 71.1372 46.83L71.5372 47.55C71.9472 47.2 72.5872 46.98 73.2172 46.98C74.1672 46.98 74.6372 47.45 74.6372 48.26V48.45H73.1172C71.5372 48.45 70.9872 49.15 70.9872 50C70.9872 50.92 71.7472 51.56 72.9472 51.56C73.7772 51.56 74.3672 51.28 74.6872 50.8V51.5H75.5972V48.3C75.5972 46.85 74.7772 46.15 73.3272 46.15ZM73.1072 50.82C72.3772 50.82 71.9372 50.49 71.9372 49.96C71.9372 49.51 72.2072 49.14 73.1572 49.14H74.6372V49.88C74.3972 50.49 73.8272 50.82 73.1072 50.82ZM77.3738 51.5H78.3338V44.08H77.3738V51.5ZM82.9737 50.5C82.7737 50.66 82.5037 50.75 82.2237 50.75C81.6937 50.75 81.3937 50.43 81.3937 49.86V46.99H82.9137V46.2H81.3937V45.04H80.4337V46.2H79.5337V46.99H80.4337V49.9C80.4337 50.97 81.0437 51.56 82.1137 51.56C82.5437 51.56 82.9837 51.44 83.2737 51.19L82.9737 50.5ZM87.2643 46.15C86.4543 46.15 85.7943 46.44 85.3943 46.95V44.08H84.4343V51.5H85.3943V48.77C85.3943 47.62 86.0543 47.01 87.0743 47.01C87.9843 47.01 88.5043 47.52 88.5043 48.56V51.5H89.4643V48.45C89.4643 46.89 88.5543 46.15 87.2643 46.15ZM93.5803 51.56C94.5303 51.56 95.3203 51.16 95.7403 50.42L95.0103 49.96C94.6703 50.48 94.1503 50.72 93.5703 50.72C92.5303 50.72 91.7503 50 91.7503 48.85C91.7503 47.72 92.5303 46.99 93.5703 46.99C94.1503 46.99 94.6703 47.23 95.0103 47.75L95.7403 47.28C95.3203 46.54 94.5303 46.15 93.5803 46.15C91.9503 46.15 90.7803 47.27 90.7803 48.85C90.7803 50.43 91.9503 51.56 93.5803 51.56ZM98.9132 46.15C98.0632 46.15 97.2732 46.39 96.7232 46.83L97.1232 47.55C97.5332 47.2 98.1732 46.98 98.8032 46.98C99.7532 46.98 100.223 47.45 100.223 48.26V48.45H98.7032C97.1232 48.45 96.5732 49.15 96.5732 50C96.5732 50.92 97.3332 51.56 98.5332 51.56C99.3632 51.56 99.9532 51.28 100.273 50.8V51.5H101.183V48.3C101.183 46.85 100.363 46.15 98.9132 46.15ZM98.6932 50.82C97.9632 50.82 97.5232 50.49 97.5232 49.96C97.5232 49.51 97.7932 49.14 98.7432 49.14H100.223V49.88C99.9832 50.49 99.4132 50.82 98.6932 50.82ZM103.88 47.09V46.2H102.96V51.5H103.92V48.86C103.92 47.7 104.56 47.07 105.59 47.07C105.66 47.07 105.73 47.07 105.81 47.08V46.15C104.88 46.15 104.22 46.47 103.88 47.09ZM111.734 48.88C111.734 47.25 110.644 46.15 109.114 46.15C107.584 46.15 106.454 47.28 106.454 48.85C106.454 50.43 107.594 51.56 109.304 51.56C110.184 51.56 110.914 51.26 111.394 50.7L110.864 50.08C110.474 50.51 109.954 50.72 109.334 50.72C108.284 50.72 107.534 50.1 107.414 49.17H111.714C111.724 49.08 111.734 48.96 111.734 48.88ZM109.114 46.96C110.044 46.96 110.714 47.59 110.814 48.48H107.414C107.514 47.58 108.194 46.96 109.114 46.96ZM121.123 51.5H122.173L118.993 44.5H118.003L114.833 51.5H115.863L116.633 49.75H120.353L121.123 51.5ZM116.983 48.95L118.493 45.52L120.003 48.95H116.983ZM125.338 51.56C126.288 51.56 127.078 51.16 127.498 50.42L126.768 49.96C126.428 50.48 125.908 50.72 125.328 50.72C124.288 50.72 123.508 50 123.508 48.85C123.508 47.72 124.288 46.99 125.328 46.99C125.908 46.99 126.428 47.23 126.768 47.75L127.498 47.28C127.078 46.54 126.288 46.15 125.338 46.15C123.708 46.15 122.538 47.27 122.538 48.85C122.538 50.43 123.708 51.56 125.338 51.56ZM130.973 51.56C131.923 51.56 132.713 51.16 133.133 50.42L132.403 49.96C132.063 50.48 131.543 50.72 130.963 50.72C129.923 50.72 129.143 50 129.143 48.85C129.143 47.72 129.923 46.99 130.963 46.99C131.543 46.99 132.063 47.23 132.403 47.75L133.133 47.28C132.713 46.54 131.923 46.15 130.973 46.15C129.343 46.15 128.173 47.27 128.173 48.85C128.173 50.43 129.343 51.56 130.973 51.56ZM139.088 48.88C139.088 47.25 137.998 46.15 136.468 46.15C134.938 46.15 133.808 47.28 133.808 48.85C133.808 50.43 134.948 51.56 136.658 51.56C137.538 51.56 138.268 51.26 138.748 50.7L138.218 50.08C137.828 50.51 137.308 50.72 136.688 50.72C135.638 50.72 134.888 50.1 134.768 49.17H139.068C139.078 49.08 139.088 48.96 139.088 48.88ZM136.468 46.96C137.398 46.96 138.068 47.59 138.168 48.48H134.768C134.868 47.58 135.548 46.96 136.468 46.96ZM141.941 51.56C143.351 51.56 144.231 50.95 144.231 49.99C144.231 47.93 140.871 48.95 140.871 47.7C140.871 47.28 141.281 46.97 142.121 46.97C142.641 46.97 143.171 47.08 143.651 47.39L144.061 46.63C143.601 46.33 142.821 46.15 142.131 46.15C140.771 46.15 139.921 46.79 139.921 47.74C139.921 49.85 143.271 48.82 143.271 50.01C143.271 50.46 142.901 50.73 142.011 50.73C141.321 50.73 140.601 50.5 140.151 50.18L139.751 50.94C140.191 51.29 141.061 51.56 141.941 51.56ZM146.95 51.56C148.36 51.56 149.24 50.95 149.24 49.99C149.24 47.93 145.88 48.95 145.88 47.7C145.88 47.28 146.29 46.97 147.13 46.97C147.65 46.97 148.18 47.08 148.66 47.39L149.07 46.63C148.61 46.33 147.83 46.15 147.14 46.15C145.78 46.15 144.93 46.79 144.93 47.74C144.93 49.85 148.28 48.82 148.28 50.01C148.28 50.46 147.91 50.73 147.02 50.73C146.33 50.73 145.61 50.5 145.16 50.18L144.76 50.94C145.2 51.29 146.07 51.56 146.95 51.56Z" fill="#121212"/>
</svg>
